<svg xmlns="http://www.w3.org/2000/svg" width="1200" height="800" viewBox="0 0 1200 800">
  <defs><filter id="shadow"><feGaussianBlur stdDeviation="16"/></filter><clipPath id="card"><polygon points="185,184 1000,112 1064,618 128,690"/></clipPath></defs>
  <rect width="1200" height="800" fill="#94613d"/>
  <g opacity=".34" stroke="#4f2f20" fill="none"><path d="M0 86 C240 40 430 145 720 78 S1040 30 1200 80"/><path d="M0 242 C290 180 440 300 730 220 S1000 180 1200 260"/><path d="M0 470 C210 390 510 520 760 430 S1010 410 1200 450"/><path d="M0 710 C250 630 470 760 760 690 S1040 610 1200 680"/></g>
  <polygon points="205,210 1026,136 1092,646 151,720" fill="#291c16" opacity=".5" filter="url(#shadow)"/>
  <polygon points="185,184 1000,112 1064,618 128,690" fill="#f8f7f1" stroke="#dedbd0" stroke-width="7"/>
  <g clip-path="url(#card)" transform="rotate(-5 600 400)">
    <circle cx="350" cy="410" r="118" fill="#0c8ca2"/><text x="350" y="430" text-anchor="middle" font-family="Arial" font-weight="700" font-size="58" fill="white">MP</text>
    <text x="535" y="290" font-family="Arial" font-weight="700" font-size="58" fill="#15232d">MICROPLAYER</text>
    <text x="540" y="365" font-family="Arial" font-size="31" fill="#263944">PHILIPPE DHORME</text>
    <text x="540" y="420" font-family="Arial" font-size="25" fill="#52636c">Images lenticulaires · Dijon</text>
    <text x="540" y="474" font-family="Arial" font-size="24" fill="#52636c">microplayer.fr</text>
  </g>
</svg>
